<svg width="30" height="30" viewBox="0 0 30 30" fill="none" xmlns="http://www.w3.org/2000/svg">
<rect x="1" y="1" width="28" height="28" fill="#181624" stroke="#5D5B6E" stroke-width="2"/>
<path d="M5.31015 24.6861L5.31382 24.6898C5.41123 24.7879 5.52708 24.8658 5.6547 24.919C5.78232 24.9722 5.9192 24.9997 6.05747 24.9998C6.17381 24.9997 6.28935 24.9805 6.39948 24.943L12.3955 22.909L23.9015 11.403C24.6049 10.6995 25 9.74549 25 8.7507C25 7.75591 24.6047 6.80188 23.9013 6.09849C23.1978 5.39509 22.2438 4.99996 21.249 5C20.2542 5.00004 19.3002 5.39526 18.5968 6.09872L7.09077 17.6047L5.05693 23.6006C4.99287 23.787 4.98264 23.9878 5.02743 24.1798C5.07221 24.3718 5.1702 24.5473 5.31015 24.6861ZM19.5522 7.05412C20.0029 6.60694 20.6123 6.35654 21.2472 6.35776C21.882 6.35898 22.4905 6.61171 22.9394 7.06062C23.3883 7.50953 23.641 8.11803 23.6422 8.75287C23.6434 9.38771 23.393 9.99717 22.9458 10.4478L21.4328 11.9608L18.0391 8.56717L19.5522 7.05412ZM8.26924 18.3371L17.0837 9.52256L20.4774 12.9162L11.6628 21.7307L6.527 23.4729L8.26924 18.3371Z" fill="#5D5B6E"/>
</svg>
